<?xml version="1.0" encoding="UTF-8"?>
<!DOCTYPE svg PUBLIC "-//W3C//DTD SVG 1.1//EN" "http://www.w3.org/Graphics/SVG/1.1/DTD/svg11.dtd">
<svg xmlns="http://www.w3.org/2000/svg" version="1.1" width="48px" height="48px" style="shape-rendering:geometricPrecision; text-rendering:geometricPrecision; image-rendering:optimizeQuality; fill-rule:evenodd; clip-rule:evenodd" xmlns:xlink="http://www.w3.org/1999/xlink">
<g><path style="opacity:0.793" fill="#42a4ec" d="M 10.5,5.5 C 11.8734,5.34332 13.2068,5.50999 14.5,6C 15.4506,6.71752 15.6172,7.55085 15,8.5C 12.8333,10.6667 10.6667,12.8333 8.5,15C 4.66667,15.1667 2.83333,13.3333 3,9.5C 4.425,8.78769 5.925,8.62103 7.5,9C 8.7101,7.9609 9.7101,6.79423 10.5,5.5 Z"/></g>
<g><path style="opacity:1" fill="#73adf1" d="M 35.5,9.5 C 34.5,10.8333 33.5,12.1667 32.5,13.5C 27.8333,13.5 23.1667,13.5 18.5,13.5C 18.5,12.1667 18.5,10.8333 18.5,9.5C 24.1667,9.5 29.8333,9.5 35.5,9.5 Z"/></g>
<g><path style="opacity:1" fill="#6ba5f4" d="M 35.5,9.5 C 38.1667,9.5 40.8333,9.5 43.5,9.5C 43.5,10.8333 43.5,12.1667 43.5,13.5C 39.8333,13.5 36.1667,13.5 32.5,13.5C 33.5,12.1667 34.5,10.8333 35.5,9.5 Z"/></g>
<g><path style="opacity:0.793" fill="#42a4ec" d="M 10.5,17.5 C 11.8734,17.3433 13.2068,17.51 14.5,18C 15.4506,18.7175 15.6172,19.5509 15,20.5C 12.8333,22.6667 10.6667,24.8333 8.5,27C 4.66667,27.1667 2.83333,25.3333 3,21.5C 4.425,20.7877 5.925,20.621 7.5,21C 8.7101,19.9609 9.7101,18.7942 10.5,17.5 Z"/></g>
<g><path style="opacity:1" fill="#73adf1" d="M 35.5,21.5 C 34.5,22.8333 33.5,24.1667 32.5,25.5C 27.8333,25.5 23.1667,25.5 18.5,25.5C 18.5,24.1667 18.5,22.8333 18.5,21.5C 24.1667,21.5 29.8333,21.5 35.5,21.5 Z"/></g>
<g><path style="opacity:1" fill="#6ba5f4" d="M 35.5,21.5 C 38.1667,21.5 40.8333,21.5 43.5,21.5C 43.5,22.8333 43.5,24.1667 43.5,25.5C 39.8333,25.5 36.1667,25.5 32.5,25.5C 33.5,24.1667 34.5,22.8333 35.5,21.5 Z"/></g>
<g><path style="opacity:0.793" fill="#42a4ec" d="M 10.5,29.5 C 11.8734,29.3433 13.2068,29.51 14.5,30C 15.4506,30.7175 15.6172,31.5509 15,32.5C 12.8333,34.6667 10.6667,36.8333 8.5,39C 4.66667,39.1667 2.83333,37.3333 3,33.5C 4.425,32.7877 5.925,32.621 7.5,33C 8.7101,31.9609 9.7101,30.7942 10.5,29.5 Z"/></g>
<g><path style="opacity:1" fill="#73adf1" d="M 35.5,33.5 C 34.5,34.8333 33.5,36.1667 32.5,37.5C 27.8333,37.5 23.1667,37.5 18.5,37.5C 18.5,36.1667 18.5,34.8333 18.5,33.5C 24.1667,33.5 29.8333,33.5 35.5,33.5 Z"/></g>
<g><path style="opacity:1" fill="#6ba5f4" d="M 35.5,33.5 C 38.1667,33.5 40.8333,33.5 43.5,33.5C 43.5,34.8333 43.5,36.1667 43.5,37.5C 39.8333,37.5 36.1667,37.5 32.5,37.5C 33.5,36.1667 34.5,34.8333 35.5,33.5 Z"/></g>
</svg>
